<?xml version="1.0" encoding="UTF-8"?>
<svg width="400px" height="400px" viewBox="0 0 400 400" version="1.1" xmlns="http://www.w3.org/2000/svg" xmlns:xlink="http://www.w3.org/1999/xlink">
    <!-- Generator: Sketch 58 (84663) - https://sketch.com -->
    <title>json_icon</title>
    <desc>Created with Sketch.</desc>
    <g id="Page-1" stroke="none" stroke-width="1" fill="none" fill-rule="evenodd">
        <g id="json_icon">
            <rect id="Rectangle" fill="#FFFFFF" x="0" y="0" width="400" height="400"></rect>
            <g id="json-file-svgrepo-com" stroke-width="1" transform="translate(25.000000, 25.000000)" fill="#000000">
                <path d="M342.003261,73.5422414 L331.647826,65.3293103 L259.334783,7.97155172 C259.327174,7.96551724 259.327174,7.96551724 259.319565,7.96551724 L253.46087,3.31293103 C250.759783,1.17672414 247.176087,0 243.36413,0 L22.5445652,0 C13.5130435,0 3.80434783,5.52758621 3.80434783,17.6568966 L3.80434783,235.344828 L3.80434783,335.137069 L3.80434783,337.931034 C3.80434783,342.981897 10.2032609,347.9 17.773913,349.450862 C18.1619565,349.535345 18.5347826,349.65 18.9304348,349.710345 C20.1173913,349.897414 21.3271739,350 22.5445652,350 L327.455435,350 C328.672826,350 329.882609,349.897414 331.069565,349.710345 C331.465217,349.65 331.838043,349.535345 332.226087,349.450862 C339.796739,347.9 346.195652,342.981897 346.195652,337.931034 L346.195652,335.137069 L346.195652,235.344828 L346.195652,84.35 C346.195652,79.7215517 345.488043,76.3 342.003261,73.5422414 Z M254.891304,21.512931 L319.070652,72.4137931 L254.891304,72.4137931 L254.891304,21.512931 Z M22.5445652,337.931034 C22.0043478,337.931034 21.5173913,337.780172 21.0380435,337.635345 C19.8586957,337.188793 19.0217391,336.247414 19.0217391,335.137069 L19.0217391,247.413793 L330.978261,247.413793 L330.978261,335.137069 C330.978261,336.247414 330.141304,337.188793 328.961957,337.635345 C328.482609,337.780172 327.995652,337.931034 327.455435,337.931034 L22.5445652,337.931034 Z M19.0217391,235.344828 L19.0217391,17.6568966 C19.0217391,16.3474138 19.2728261,12.0689655 22.5445652,12.0689655 L240.115217,12.0689655 C239.86413,12.8293103 239.673913,13.6137931 239.673913,14.4284483 L239.673913,83.1551724 C235.626087,80.2586207 230.322826,78.4482759 224.456522,78.4482759 C220.248913,78.4482759 216.847826,81.1517241 216.847826,84.4827586 C216.847826,87.8137931 220.248913,90.5172414 224.456522,90.5172414 C228.656522,90.5172414 232.065217,93.2267241 232.065217,96.5517241 L232.065217,120.689655 C232.065217,127.931034 236.18913,134.363793 242.580435,138.793103 C236.18913,143.222414 232.065217,149.655172 232.065217,156.896552 L232.065217,181.034483 C232.065217,184.359483 228.656522,187.068966 224.456522,187.068966 C220.248913,187.068966 216.847826,189.772414 216.847826,193.103448 C216.847826,196.434483 220.248913,199.137931 224.456522,199.137931 C237.041304,199.137931 247.282609,191.015517 247.282609,181.034483 L247.282609,156.896552 C247.282609,150.240517 254.107609,144.827586 262.5,144.827586 C266.707609,144.827586 270.108696,142.124138 270.108696,138.793103 C270.108696,135.462069 266.707609,132.758621 262.5,132.758621 C254.107609,132.758621 247.282609,127.34569 247.282609,120.689655 L247.282609,96.5517241 C247.282609,91.8991379 244.992391,87.6931034 241.347826,84.4827586 L328.003261,84.4827586 C329.030435,84.4827586 330.019565,84.3318966 330.978261,84.1327586 C330.978261,84.2232759 330.98587,84.2594828 330.98587,84.35 L330.98587,235.344828 L19.0217391,235.344828 Z" id="Shape" fill-rule="nonzero"></path>
                <path d="M78.7804348,310.353448 C78.6358696,313.044828 77.4793478,314.963793 75.2956522,316.086207 C73.1119565,317.208621 70.1826087,317.775862 66.5076087,317.775862 C65.0543478,317.775862 63.4945652,317.643103 61.8282609,317.365517 C60.1619565,317.087931 58.5641304,316.774138 57.0423913,316.418103 C55.5206522,316.062069 54.1130435,315.675862 52.8271739,315.265517 C51.5413043,314.855172 50.5521739,314.450862 49.8597826,314.07069 L44.5565217,320.750862 C45.948913,321.577586 47.6380435,322.319828 49.6543478,322.977586 C51.6706522,323.635345 53.7630435,324.226724 55.9467391,324.751724 C58.1304348,325.276724 60.2456522,325.656897 62.2923913,325.90431 C64.3391304,326.151724 66.1271739,326.278448 67.648913,326.278448 C70.7,326.278448 73.6673913,326.043103 76.5434783,325.578448 C79.4195652,325.113793 81.9684783,324.287069 84.1902174,323.10431 C86.4119565,321.921552 88.1771739,320.352586 89.4934783,318.403448 C90.8097826,316.45431 91.4717391,314.040517 91.4717391,311.186207 L91.4717391,263.827586 L78.7804348,263.827586 L78.7804348,310.353448 Z" id="Path" fill-rule="nonzero"></path>
                <path d="M145.196739,296.075862 C142.807609,294.7 140.220652,293.52931 137.443478,292.569828 C134.666304,291.610345 132.102174,290.62069 129.743478,289.600862 C127.384783,288.581034 125.41413,287.40431 123.816304,286.052586 C122.218478,284.700862 121.427174,282.926724 121.427174,280.730172 C121.427174,279.849138 121.701087,278.925862 122.256522,277.966379 C122.811957,277.006897 123.572826,276.137931 124.546739,275.365517 C125.520652,274.593103 126.623913,273.953448 127.879348,273.428448 C129.134783,272.903448 130.443478,272.589655 131.83587,272.481034 C134.331522,272.318103 136.378261,272.287931 137.976087,272.396552 C139.573913,272.505172 140.852174,272.698276 141.826087,272.975862 C142.8,273.253448 143.545652,273.525 144.063043,273.802586 C144.580435,274.080172 145.052174,274.297414 145.470652,274.460345 C145.53913,274.406034 145.744565,274.128448 146.094565,273.633621 C146.444565,273.138793 146.863043,272.517241 147.342391,271.775 C147.821739,271.032759 148.346739,270.236207 148.902174,269.385345 C149.457609,268.534483 149.944565,267.75 150.355435,267.031897 C148.33913,265.987931 145.71413,265.227586 142.45,264.762931 C139.18587,264.298276 135.959783,264.062931 132.779348,264.062931 C129.659783,264.062931 126.692391,264.443103 123.884783,265.215517 C121.077174,265.987931 118.619565,267.10431 116.496739,268.558621 C114.373913,270.012931 112.7,271.787069 111.452174,273.881034 C110.204348,275.975 109.565217,278.37069 109.565217,281.062069 C109.565217,284.031034 110.356522,286.505172 111.954348,288.484483 C113.552174,290.463793 115.56087,292.183621 117.988043,293.637931 C120.415217,295.092241 123.017391,296.359483 125.786957,297.433621 C128.556522,298.507759 131.143478,299.575862 133.540217,300.65 C135.936957,301.724138 137.922826,302.918966 139.520652,304.240517 C141.118478,305.562069 141.909783,307.155172 141.909783,309.025862 C141.909783,312.109483 140.783696,314.432759 138.531522,315.99569 C136.279348,317.558621 133.030435,318.349138 128.807609,318.349138 C127.415217,318.349138 125.931522,318.234483 124.333696,318.017241 C122.73587,317.8 121.145652,317.510345 119.547826,317.148276 C117.95,316.786207 116.413043,316.406034 114.921739,315.99569 C113.430435,315.585345 112.205435,315.156897 111.231522,314.716379 L109.047826,321.812931 C110.227174,322.639655 111.634783,323.339655 113.263043,323.918966 C114.891304,324.498276 116.603261,324.950862 118.41413,325.282759 C120.217391,325.614655 122.005435,325.85 123.770652,325.982759 C125.53587,326.115517 127.255435,326.187931 128.921739,326.187931 C132.809783,326.187931 136.271739,325.723276 139.322826,324.787931 C142.373913,323.852586 144.938043,322.603448 147.022826,321.034483 C149.107609,319.465517 150.713043,317.649138 151.861957,315.591379 C153.01087,313.533621 153.581522,311.397414 153.581522,309.194828 C153.581522,305.948276 152.790217,303.293103 151.192391,301.235345 C149.594565,299.177586 147.58587,297.451724 145.196739,296.075862 Z" id="Path" fill-rule="nonzero"></path>
                <path d="M219.678261,271.986207 C216.802174,269.397414 213.43913,267.436207 209.58913,266.084483 C205.73913,264.732759 201.523913,264.062931 196.951087,264.062931 C192.378261,264.062931 188.163043,264.732759 184.313043,266.084483 C180.463043,267.436207 177.1,269.397414 174.223913,271.986207 C171.347826,274.575 169.088043,277.803448 167.459783,281.677586 C165.831522,285.551724 165.017391,290.053448 165.017391,295.164655 C165.017391,300.275862 165.831522,304.789655 167.459783,308.693966 C169.088043,312.598276 171.347826,315.844828 174.223913,318.427586 C177.1,321.010345 180.463043,322.965517 184.313043,324.287069 C188.163043,325.608621 192.378261,326.266379 196.951087,326.266379 C201.523913,326.266379 205.73913,325.608621 209.58913,324.287069 C213.43913,322.965517 216.802174,321.016379 219.678261,318.427586 C222.554348,315.838793 224.81413,312.598276 226.442391,308.693966 C228.070652,304.789655 228.884783,300.275862 228.884783,295.164655 C228.884783,290.053448 228.070652,285.551724 226.442391,281.677586 C224.81413,277.803448 222.554348,274.575 219.678261,271.986207 Z M214.527174,305.936207 C213.484783,308.875 212.046739,311.258621 210.213043,313.075 C208.379348,314.891379 206.294565,316.200862 203.973913,316.991379 C201.653261,317.781897 199.203261,318.186207 196.63913,318.186207 C194.143478,318.186207 191.761957,317.763793 189.509783,316.906897 C187.257609,316.05 185.241304,314.710345 183.476087,312.863793 C181.71087,311.017241 180.318478,308.64569 179.31413,305.725 C178.309783,302.80431 177.769565,299.292241 177.701087,295.164655 C177.769565,290.928448 178.325,287.356034 179.367391,284.441379 C180.409783,281.526724 181.847826,279.149138 183.681522,277.302586 C185.515217,275.456034 187.6,274.158621 189.920652,273.386207 C192.241304,272.613793 194.691304,272.233621 197.255435,272.233621 C199.751087,272.233621 202.132609,272.643966 204.384783,273.47069 C206.636957,274.297414 208.653261,275.643103 210.418478,277.513793 C212.183696,279.384483 213.576087,281.762069 214.580435,284.652586 C215.584783,287.543103 216.125,291.049138 216.193478,295.17069 C216.125,299.406897 215.569565,302.997414 214.527174,305.936207 Z" id="Shape" fill-rule="nonzero"></path>
                <polygon id="Path" fill-rule="nonzero" points="289.221739 306.968103 259.159783 265.058621 246.468478 265.058621 246.468478 325.862069 259.159783 325.862069 259.159783 283.952586 289.221739 325.862069 301.913043 325.862069 301.913043 265.058621 289.221739 265.058621"></polygon>
                <path d="M110.326087,120.689655 L110.326087,96.5517241 C110.326087,93.2267241 113.734783,90.5172414 117.934783,90.5172414 C122.142391,90.5172414 125.543478,87.8137931 125.543478,84.4827586 C125.543478,81.1517241 122.142391,78.4482759 117.934783,78.4482759 C105.35,78.4482759 95.1086957,86.5706897 95.1086957,96.5517241 L95.1086957,120.689655 C95.1086957,127.34569 88.2836957,132.758621 79.8913043,132.758621 C75.6836957,132.758621 72.2826087,135.462069 72.2826087,138.793103 C72.2826087,142.124138 75.6836957,144.827586 79.8913043,144.827586 C88.2836957,144.827586 95.1086957,150.240517 95.1086957,156.896552 L95.1086957,181.034483 C95.1086957,191.015517 105.35,199.137931 117.934783,199.137931 C122.142391,199.137931 125.543478,196.434483 125.543478,193.103448 C125.543478,189.772414 122.142391,187.068966 117.934783,187.068966 C113.734783,187.068966 110.326087,184.359483 110.326087,181.034483 L110.326087,156.896552 C110.326087,149.655172 106.202174,143.222414 99.8108696,138.793103 C106.202174,134.363793 110.326087,127.931034 110.326087,120.689655 Z" id="Path" fill-rule="nonzero"></path>
                <ellipse id="Oval" fill-rule="nonzero" cx="171.195652" cy="117.672414" rx="11.4130435" ry="9.05172414"></ellipse>
                <path d="M171.195652,150.862069 C166.988043,150.862069 163.586957,153.565517 163.586957,156.896552 L163.586957,175 C163.586957,178.331034 166.988043,181.034483 171.195652,181.034483 C175.403261,181.034483 178.804348,178.331034 178.804348,175 L178.804348,156.896552 C178.804348,153.565517 175.403261,150.862069 171.195652,150.862069 Z" id="Path" fill-rule="nonzero"></path>
            </g>
        </g>
    </g>
</svg>